<svg xml:space="preserve" style="enable-background:new 0 0 1024 1024;" viewBox="0 0 1024 1024" y="0px" x="0px" xmlns:xlink="http://www.w3.org/1999/xlink" xmlns="http://www.w3.org/2000/svg" id="图层_1" version="1.1">
<style type="text/css">
	.st0{fill:url(#SVGID_1_);}
	.st1{fill:#EEE3A2;}
	.st2{fill:#BF570A;}
</style>
<g>
	<g>
		
			<radialGradient gradientUnits="userSpaceOnUse" gradientTransform="matrix(0.9778 0 0 0.9778 11.3778 11.3778)" r="556.1677" cy="512" cx="512" id="SVGID_1_">
			<stop style="stop-color:#FC971F" offset="0.2235"></stop>
			<stop style="stop-color:#F49229" offset="0.452"></stop>
			<stop style="stop-color:#EF8F30" offset="0.7318"></stop>
			<stop style="stop-color:#D4DD17" offset="0.9749"></stop>
		</radialGradient>
		<path d="M682.96,769.84c0,0-33.34-48.72-33.34-80.35c0,0,17.31-94.02,7.91-117.95c0,0-7.91,146.38-42.1,176.08
			l1.14,145.31c0,0,35.9,30.2,16.53,47.87s-72.37,11.97-73.51,0c-1.14-11.97,4.56-47.3,4.56-47.3l-12.54-115.11
			c0,0-60.4-96.87-66.1-151c-5.7-54.13-5.7-102.57-5.7-102.57s-23.36,103.14,5.7,152.71c29.06,49.58,49.01,102,49.58,104.85
			c0.57,2.85-8.55,39.89-32.48,28.49c-23.93-11.4-36.47-23.93-31.34-43.88c5.13-19.94,4.56-40.46,4.56-40.46l-30.77,2.28
			c0,0-45.59-50.15-47.87-87.75c0,0-5.7,47.87,35.9,94.02c0,0,19.94,17.66,27.35,36.47c7.41,18.8,2.28,105.99,2.28,105.99
			s-80.92,10.26-79.78-12.54c1.14-22.79,24.57-17.81,32.91-10.97c0,0-6.84-12.82-20.94-9.4l3.63-51.07c0,0-38.96-47.65-45.8-99.51
			c0,0,6.84,8.55,22.22,12.54c0,0-98.01-108.27-94.59-184.05s31.91-109.41,31.91-109.41s-75.22-78.07-16.53-172.37
			c0,0-73.51-79.49-46.16-149.58c0,0,57.27-24.79,116.25,64.96c0,0,51.28-22.22,84.62-3.42c0,0,43.59-92.31,82.06-79.49
			c0,0,38.46,46.16,18.8,103.42s-15.58,82.19-5.32,118.94c10.26,36.75,1.9,61.41,45.5,65.68c43.59,4.27,97.44-1.71,132.49,55.56
			c35.04,57.27,55.56,156.42,56.41,224.8c0,0,4.27,107.7-45.3,135.9l-0.85,115.82c0,0,14.96,10.68,14.53,26.5
			c-0.43,15.81-76.07,17.52-77.35,7.69c-1.28-9.83,2.56-23.93,16.67-26.5C688.09,901.04,682.86,795.75,682.96,769.84z" class="st0"></path>
		<path d="M524.98,72c2.53,0,5.05,0.39,7.54,1.22c0,0,38.46,46.16,18.8,103.42c-19.66,57.27-15.58,82.19-5.32,118.94
			c10.26,36.75,1.9,61.41,45.5,65.68c43.59,4.27,97.44-1.71,132.49,55.56c35.04,57.27,55.56,156.42,56.41,224.8
			c0,0,4.27,107.7-45.3,135.9l-0.85,115.82c0,0,14.96,10.68,14.53,26.5c-0.25,9.37-26.92,13.79-48.87,13.79
			c-15.1,0-27.97-2.09-28.49-6.09c-1.28-9.83,2.56-23.93,16.67-26.5c0,0-5.23-105.29-5.13-131.2c0,0-33.34-48.72-33.34-80.35
			c0,0,17.31-94.02,7.91-117.95c0,0-7.91,146.37-42.1,176.08l1.14,145.31c0,0,35.9,30.2,16.53,47.87
			C624.32,948.79,608.64,952,594,952c-17.66,0-33.79-4.67-34.41-11.21c-1.14-11.97,4.56-47.3,4.56-47.3l-12.54-115.11
			c0,0-60.4-96.87-66.1-151c-5.7-54.13-5.7-102.57-5.7-102.57s-23.36,103.14,5.7,152.71c29.06,49.58,49.01,102,49.58,104.85
			c0.49,2.47-6.3,30.66-23.73,30.66c-2.67,0-5.58-0.66-8.75-2.17c-23.93-11.4-36.47-23.93-31.34-43.88
			c5.13-19.94,4.56-40.46,4.56-40.46l-30.77,2.28c0,0-45.59-50.14-47.87-87.75c0,0-5.7,47.87,35.9,94.02
			c0,0,19.94,17.66,27.35,36.47c7.41,18.8,2.28,105.99,2.28,105.99s-18.16,2.3-37.15,2.3c-21.1,0-43.23-2.84-42.63-14.84
			c0.63-12.6,8.08-16.71,16.02-16.71c6.42,0,13.16,2.69,16.89,5.74c0,0-5.32-9.98-16.26-9.98c-1.46,0-3.02,0.18-4.68,0.58
			l3.63-51.07c0,0-38.96-47.65-45.8-99.51c0,0,6.84,8.55,22.22,12.54c0,0-98.01-108.27-94.59-184.05
			c3.42-75.79,31.91-109.41,31.91-109.41s-75.22-78.07-16.53-172.37c0,0-73.51-79.49-46.16-149.58c0,0,7.25-3.14,19.25-3.14
			c21.72,0,59,10.28,97,68.1c0,0,25.32-10.97,51.95-10.97c11.26,0,22.76,1.96,32.67,7.55C450.47,152.71,488.58,72,524.98,72
			 M524.98,69c-34.31,0-68.56,64.95-75.85,79.62c-8.8-4.29-19.32-6.46-31.33-6.46c-22.55,0-43.85,7.54-50.81,10.27
			c-16.76-25.02-35-43.39-54.23-54.62c-14.52-8.48-29.3-12.78-43.91-12.78c-12.47,0-20.12,3.25-20.44,3.39l-1.15,0.5l-0.45,1.17
			c-6.44,16.51-7.95,34.86-4.49,54.55c2.75,15.62,8.62,32.1,17.44,49c12.65,24.22,27.51,42.02,32.27,47.45
			c-12.92,21.36-20.13,43.62-21.45,66.21c-1.09,18.62,1.81,37.48,8.61,56.04c9.64,26.31,24.17,44.25,29.18,49.95
			c-2.59,3.57-7.95,11.73-13.53,24.95c-6.98,16.54-15.68,44.56-17.47,84.16c-0.8,17.73,3.76,38.6,13.57,62.02
			c7.78,18.58,18.86,38.84,32.94,60.21c15.74,23.89,31.81,43.91,41.03,54.89c-6.65-3.53-9.79-7.3-9.84-7.36l-6.68-8.2l1.37,10.48
			c3.6,27.27,16.04,53.29,25.84,70.3c9.03,15.68,17.35,26.59,19.86,29.77l-3.55,49.9l-0.14,1.99c-7.14,2.46-11.35,8.88-11.83,18.45
			c-0.16,3.29,0.94,6.22,3.29,8.68c5.96,6.26,19.8,9.3,42.34,9.3c18.96,0,37.34-2.3,37.52-2.33l2.47-0.31l0.15-2.49
			c0.21-3.59,5.08-88.06-2.48-107.26c-7.35-18.66-26.11-35.78-28.02-37.5c-19.52-21.7-28.35-43.85-32.27-60.93
			c13.66,29.72,38.49,57.26,39.9,58.81l0.98,1.08l1.46-0.11l27.56-2.04c-0.07,6.43-0.67,21.71-4.47,36.48
			c-2.72,10.57-0.98,19.64,5.31,27.73c5.42,6.97,14.21,13.2,27.65,19.6c3.43,1.63,6.81,2.46,10.04,2.46
			c6.21,0,11.77-2.94,16.52-8.73c7.45-9.08,10.69-22.81,10.15-25.52c-0.7-3.48-20.83-56.14-49.93-105.78
			c-11.57-19.73-16.18-51.94-13.35-93.14c0.67-9.76,1.69-18.98,2.78-27.05c0.72,19,2.15,44.81,4.99,71.88
			c2.4,22.82,14.35,55.4,35.5,96.85c14.34,28.1,28.27,50.94,30.68,54.84l12.42,114.03c-0.66,4.15-5.63,36.01-4.52,47.66
			c0.91,9.57,20.02,13.93,37.4,13.93c8.41,0,29.25-1.17,41.12-12c4.57-4.17,6.83-9.28,6.71-15.2c-0.31-15.66-17.7-32.18-22.27-36.26
			l-1.12-142.61c14.24-13.47,25.62-47.11,33.82-100.04c1.44-9.29,2.66-18.4,3.67-26.93c-2.89,32.03-9.16,66.42-9.27,66.98
			l-0.05,0.27v0.27c0,30.35,28.89,74.63,33.33,81.26c0.02,24.81,4.23,112.05,5.01,127.95c-12.87,3.8-18.09,17.2-16.52,29.22
			c0.59,4.5,6.66,6.21,11.17,7.1c5.22,1.03,12.43,1.6,20.29,1.6c12.01,0,24.14-1.26,33.27-3.46c12.18-2.94,18.43-7.39,18.59-13.24
			c0.39-14.54-10.68-24.89-14.52-28.04l0.83-112.64c11.19-6.85,20.51-18.14,27.72-33.58c5.93-12.69,10.47-28.22,13.49-46.17
			c5.02-29.83,4.15-56.68,4.1-57.95c-0.44-34.94-6.08-77.65-15.47-117.18c-7.34-30.92-20.48-74.94-41.39-109.1
			c-30.79-50.32-75.74-53.1-115.39-55.55c-6.74-0.42-13.11-0.81-19.36-1.42c-31.35-3.07-33.67-16.19-37.87-40
			c-1.24-7.01-2.64-14.96-5.03-23.51c-9.72-34.82-14.66-59.1,5.27-117.16c10.45-30.43,4.64-57.71-2.07-75.23
			c-7.25-18.94-16.87-30.6-17.27-31.08l-0.55-0.66l-0.81-0.27C530.74,69.46,527.88,69,524.98,69L524.98,69z" class="st1"></path>
	</g>
	<path d="M451.32,411.42c-3.46,1.9-6.71,4.14-9.86,6.5c-3.15,2.36-6.15,4.91-9.03,7.58c-5.8,5.3-11.13,11.11-15.9,17.34
		c-4.76,6.24-9.12,12.78-12.92,19.65c-3.77,6.88-7.01,14.04-9.79,21.37l-2.04,5.52l-1.8,5.6c-0.63,1.86-1.14,3.76-1.64,5.65
		c-0.5,1.9-1.06,3.78-1.5,5.69c-0.83,3.84-1.79,7.65-2.4,11.53l-1.01,5.81l-0.81,5.84c-0.62,3.89-0.86,7.82-1.26,11.73
		c-0.22,1.96-0.27,3.92-0.38,5.89l-0.31,5.9c-0.13,3.93-0.15,7.88-0.23,11.82l0.23,11.83c-0.27-3.93-0.54-7.87-0.76-11.82
		c-0.07-3.95-0.2-7.9-0.22-11.85l0.16-5.93c0.07-1.98,0.07-3.96,0.25-5.93c0.31-3.94,0.46-7.9,0.99-11.83l0.68-5.9
		c0.29-1.96,0.65-3.91,0.97-5.86c0.58-3.92,1.52-7.77,2.33-11.65c0.43-1.93,0.98-3.84,1.47-5.76c0.5-1.92,0.99-3.84,1.61-5.72
		l1.77-5.68l2.03-5.59c2.87-7.4,6.2-14.62,10.07-21.55c3.91-6.9,8.3-13.55,13.3-19.71c4.97-6.18,10.47-11.93,16.46-17.12
		c3.01-2.58,6.12-5.03,9.37-7.28C444.4,415.23,447.76,413.12,451.32,411.42z" class="st2"></path>
	<path d="M361.86,463.27c-3.14,5.65-5.96,11.45-8.51,17.37c-2.6,5.89-4.98,11.89-7.09,17.97
		c-4.23,12.16-7.66,24.59-9.87,37.26c-1.13,6.32-2.07,12.69-2.61,19.1c-0.52,6.4-0.82,12.83-0.74,19.26l0,2.41l0.09,2.41
		c0.07,1.61,0.11,3.22,0.2,4.82c0.28,3.2,0.44,6.42,0.88,9.61c0.6,6.42,1.87,12.75,3.13,19.08c-3.48-12.44-5.49-25.34-5.85-38.31
		c-0.44-12.97,0.71-25.96,2.92-38.74c1.15-6.39,2.67-12.7,4.39-18.95c1.74-6.24,3.68-12.43,6.01-18.48
		C349.44,485.99,354.91,474.18,361.86,463.27z" class="st2"></path>
	<g>
		<path d="M541.07,428.2c5.69-1.34,11.57-1.93,17.45-1.9c5.88,0.04,11.8,0.7,17.52,2.33c2.84,0.85,5.66,1.85,8.3,3.23
			c2.64,1.39,5.16,3.01,7.42,4.97c2.24,1.97,4.18,4.27,5.8,6.74l1.11,1.92c0.37,0.64,0.64,1.33,0.96,1.99
			c0.68,1.3,1.06,2.74,1.55,4.11c-1.29-2.62-2.63-5.2-4.43-7.46c-1.76-2.27-3.77-4.32-6-6.1c-4.51-3.49-9.76-5.95-15.27-7.48
			c-2.75-0.81-5.56-1.4-8.41-1.82c-2.84-0.45-5.72-0.7-8.6-0.88c-2.89-0.16-5.79-0.21-8.69-0.14
			C546.88,427.73,543.98,427.93,541.07,428.2z" class="st2"></path>
		<path d="M540.33,483.61c3.62-4.59,7.85-8.72,12.47-12.36c4.62-3.63,9.67-6.8,15.15-9.09
			c2.75-1.11,5.58-2.08,8.51-2.65c2.93-0.56,5.91-0.86,8.9-0.73c2.98,0.15,5.93,0.73,8.74,1.66l2.07,0.81
			c0.68,0.27,1.33,0.64,1.99,0.96c1.35,0.59,2.54,1.49,3.77,2.25c-2.64-1.25-5.3-2.43-8.11-3.07c-2.79-0.68-5.64-1.03-8.49-1.04
			c-5.7,0.08-11.34,1.42-16.6,3.67c-2.65,1.08-5.22,2.37-7.71,3.82c-2.5,1.42-4.91,3.01-7.28,4.67c-2.35,1.68-4.65,3.44-6.88,5.3
			C544.59,479.62,542.44,481.58,540.33,483.61z" class="st2"></path>
		<path d="M597.62,529.83c-2.6-5.24-4.51-10.83-5.82-16.56c-1.3-5.73-2-11.65-1.72-17.59c0.18-2.96,0.51-5.93,1.25-8.82
			c0.75-2.88,1.76-5.71,3.15-8.35c1.41-2.63,3.2-5.04,5.24-7.18l1.62-1.52c0.54-0.5,1.15-0.92,1.72-1.39
			c1.11-0.96,2.43-1.65,3.65-2.45c-2.26,1.85-4.47,3.74-6.25,6.01c-1.81,2.23-3.35,4.65-4.58,7.23c-2.37,5.19-3.57,10.85-3.8,16.57
			c-0.16,2.86-0.1,5.74,0.14,8.6c0.21,2.87,0.62,5.73,1.1,8.58c0.51,2.85,1.11,5.68,1.84,8.49
			C595.84,524.27,596.69,527.06,597.62,529.83z" class="st2"></path>
		<path d="M654.31,518.13c-5.41-2.23-10.54-5.16-15.3-8.61c-4.76-3.45-9.19-7.44-12.89-12.09
			c-1.82-2.34-3.53-4.79-4.88-7.46c-1.34-2.66-2.45-5.45-3.14-8.36c-0.68-2.91-0.92-5.9-0.8-8.86l0.21-2.21
			c0.07-0.73,0.25-1.45,0.38-2.18c0.2-1.46,0.73-2.85,1.13-4.25c-0.48,2.89-0.89,5.76-0.74,8.64c0.12,2.87,0.55,5.71,1.33,8.45
			c1.64,5.46,4.48,10.51,8.07,14.97c1.76,2.25,3.71,4.37,5.78,6.37c2.05,2.02,4.24,3.9,6.49,5.72c2.26,1.81,4.58,3.53,6.98,5.17
			C649.31,515.13,651.79,516.66,654.31,518.13z" class="st2"></path>
		<path d="M690.04,500.99c-5.85,0.17-11.72-0.43-17.48-1.64c-5.75-1.21-11.42-3.05-16.69-5.8
			c-2.61-1.4-5.17-2.94-7.49-4.83c-2.31-1.89-4.45-3.99-6.27-6.36c-1.8-2.38-3.24-5.02-4.33-7.77l-0.71-2.1
			c-0.23-0.7-0.36-1.43-0.54-2.14c-0.41-1.41-0.49-2.9-0.7-4.34c0.74,2.83,1.53,5.62,2.84,8.19c1.27,2.58,2.83,4.99,4.65,7.18
			c3.72,4.32,8.37,7.78,13.46,10.39c2.53,1.34,5.17,2.49,7.87,3.47c2.7,1.01,5.46,1.83,8.25,2.59c2.8,0.73,5.63,1.36,8.48,1.88
			C684.26,500.28,687.14,500.68,690.04,500.99z" class="st2"></path>
		<path d="M708.24,470.8c-5.4,2.24-11.11,3.78-16.91,4.71c-5.81,0.92-11.76,1.22-17.66,0.54
			c-2.94-0.37-5.88-0.9-8.72-1.84c-2.83-0.94-5.58-2.13-8.12-3.7c-2.53-1.58-4.82-3.53-6.82-5.71l-1.41-1.71
			c-0.47-0.57-0.85-1.21-1.27-1.81c-0.89-1.17-1.49-2.53-2.2-3.8c1.7,2.38,3.44,4.71,5.58,6.64c2.11,1.95,4.42,3.65,6.91,5.05
			c5.02,2.71,10.59,4.29,16.28,4.9c2.84,0.35,5.72,0.48,8.59,0.43c2.88-0.02,5.76-0.24,8.63-0.52c2.87-0.31,5.74-0.73,8.6-1.27
			C702.59,472.2,705.42,471.54,708.24,470.8z" class="st2"></path>
		<path d="M682.86,415.3c-0.35,4.94-1.64,9.82-3.59,14.43c-0.97,2.31-2.17,4.53-3.53,6.65c-1.39,2.1-3,4.07-4.8,5.86
			c-1.83,1.75-3.82,3.37-6.04,4.62c-2.22,1.23-4.55,2.28-7,2.92c-4.89,1.31-10.02,1.35-14.87,0.46c4.94,0.07,9.85-0.43,14.42-1.95
			c4.55-1.55,8.72-4.08,12.1-7.48c3.45-3.33,6.15-7.4,8.32-11.73C680.01,424.73,681.69,420.1,682.86,415.3z" class="st2"></path>
		<path d="M582.1,402.01c5.66,0.84,11.23,2.6,16.39,5.26c5.13,2.66,9.93,6.39,13.09,11.47c1.55,2.53,2.64,5.37,3.14,8.3
			c0.51,2.94,0.34,5.94-0.17,8.81c-1.1,5.77-3.74,11.05-7.01,15.73c2.61-5.09,4.67-10.46,5.46-15.97c0.31-2.75,0.43-5.55-0.15-8.24
			c-0.52-2.69-1.53-5.26-2.98-7.58c-2.87-4.69-7.32-8.31-12.14-11.15c-2.43-1.42-4.97-2.67-7.59-3.76
			C587.54,403.75,584.85,402.82,582.1,402.01z" class="st2"></path>
		<path d="M623.32,387.85c4.4,3.96,8.3,8.5,11.58,13.49c3.28,4.97,5.94,10.47,7.18,16.43c0.58,2.98,0.8,6.06,0.42,9.11
			c-0.41,3.04-1.42,6.01-2.99,8.63c-0.39,0.66-0.76,1.32-1.25,1.91c-0.47,0.6-0.9,1.23-1.4,1.79c-1.05,1.09-2.07,2.2-3.27,3.11
			c-2.3,1.92-4.9,3.42-7.54,4.74l1.81-1.28c0.6-0.43,1.24-0.8,1.79-1.29c1.13-0.94,2.3-1.82,3.29-2.89
			c1.09-0.97,1.98-2.11,2.91-3.22c0.81-1.19,1.7-2.32,2.3-3.62c1.31-2.53,2.2-5.26,2.47-8.09c0.29-2.82,0.08-5.69-0.5-8.49
			c-1.12-5.63-3.59-10.98-6.54-16.01c-1.49-2.51-3.09-4.97-4.81-7.35C627.08,392.4,625.23,390.1,623.32,387.85z" class="st2"></path>
	</g>
</g>
</svg>
