<svg xmlns:xlink="http://www.w3.org/1999/xlink" xmlns="http://www.w3.org/2000/svg" version="1.1" viewBox="0 0 200 200" height="200px" width="200px">
    <title>猫咪</title>
    <g fill-rule="evenodd" fill="none" stroke-width="1" stroke="none" id="猫咪">
        <path fill="#FFFFFF" id="Mask" d="M55.9017111,107.46748 C60.2455832,89.5712637 75.2593929,91.7349533 76.8468563,86.6307381 C77.1350825,77.5642291 73.310582,77.904889 70.2199397,67.8308614 C68.3620668,62.8464706 67.7551576,56.8571335 68.3992122,49.8628501 C59.5725648,43.3538637 55.4067311,35.6146918 55.9017111,26.6453345 C63.354674,24.3522653 71.1663474,26.3677625 79.3367313,32.6918261 C85.4850336,27.2386352 92.4843978,24.8988093 100.334824,25.6723484 C101.768244,25.79326 103.365546,25.7655302 104.186304,23.3163372 C105.007063,20.8671441 111.911124,9.17317884 116.687627,10.0464726 C119.871962,10.6286684 122.556147,18.1771196 124.740183,32.6918261 C132.185005,39.1606767 135.577985,47.6445009 134.919122,58.1432989 C133.930828,73.8914957 132.257986,76.4758266 129.610885,86.6307381 C126.963784,96.7856496 120.778642,98.9197062 119.592341,107.46748 C118.939014,112.174961 119.051204,120.428176 118.379117,134.910485 C118.349205,135.555043 118.501227,136.853045 118.835185,138.804492 L118.835175,138.804494 C119.200665,140.9402 117.765621,142.967821 115.629915,143.333311 C115.508162,143.354147 115.385494,143.369221 115.26232,143.378483 C115.26232,143.378483 115.26232,143.378483 115.26232,143.378483 C112.85444,143.559547 108.87919,141.976461 107.825359,142.157525 C107.333958,142.241954 108.151484,143.53427 107.673761,143.592555 C104.238417,144.011687 101.156703,143.754827 98.4286179,142.821976 C90.4709202,144.795746 85.0562811,145.558752 82.1847007,145.110994 C79.8618602,144.748799 75.6308895,144.180329 69.4917887,143.405582 C68.7189509,143.308071 68.0133797,143.855514 67.9158489,144.628349 C67.856384,145.09955 68.0380578,145.569039 68.3992122,145.877477 L68.3992122,145.877477 L68.3992122,145.877477 C80.9790377,156.822521 85.3125015,166.926316 81.3996038,176.18886 C75.5302572,190.082677 61.8546609,192.274676 58.4784905,188.112274 C55.1023201,183.949871 58.9958127,179.637086 63.6616583,178.283981 C68.3275039,176.930876 73.2993562,164.840564 66.3825951,159.23454 C55.1002063,151.447376 52.7279282,144.676372 54.5845821,136.363701"></path>
        <path fill="#FFD280" id="Path" d="M116.687627,10.0464726 C118.208503,10.3245362 119.615289,12.1916945 120.907984,15.6479473 L121.149027,16.3146169 C121.188978,16.4288322 121.228818,16.5445993 121.268546,16.6619183 L121.505578,17.3844545 L121.505578,17.3844545 L121.739937,18.1442351 L121.739937,18.1442351 L121.971621,18.9412602 C122.010012,19.0772014 122.048292,19.2146944 122.08646,19.3537393 L122.314134,20.2066309 L122.314134,20.2066309 L122.539133,21.096767 L122.539133,21.096767 L122.761458,22.0241474 L122.761458,22.0241474 L122.98111,22.9887722 L122.98111,22.9887722 L123.198087,23.9906415 L123.198087,23.9906415 L123.41239,25.0297551 L123.41239,25.0297551 L123.728831,26.6582588 L123.728831,26.6582588 L123.93645,27.7904835 L123.93645,27.7904835 L124.141394,28.9599525 L124.141394,28.9599525 L124.343664,30.166666 L124.343664,30.166666 L124.54326,31.4106238 L124.54326,31.4106238 L124.740183,32.6918261 L124.740183,32.6918261 C131.826838,38.8494631 135.242137,46.8328584 134.98608,56.6420121 C134.820114,56.7241104 134.650279,56.8014344 134.47517,56.8733265 C126.384224,60.1951071 116.710813,57.0906995 105.454938,47.5601037 L104.934312,47.1156671 L104.795451,47.0098517 C104.650861,46.9126968 104.489906,46.8419407 104.31993,46.8013417 C103.580634,46.6247602 102.839459,47.0459886 102.595763,47.7544295 L102.553805,47.8998552 L102.314225,48.8965725 L102.314225,48.8965725 C101.220639,53.3068426 99.9300848,57.3720131 98.4425613,61.0920839 C95.0546499,68.8044308 87.509077,74.187394 75.8058426,77.2409734 L75.1327459,77.514605 C75.0247563,77.5570672 74.9188633,77.5979579 74.8150668,77.6372771 L74.5386785,77.1554774 L74.5386785,77.1554774 L73.6481187,75.6408636 L73.6481187,75.6408636 L73.1757821,74.8140754 L73.1757821,74.8140754 L72.8536397,74.2258352 L72.8536397,74.2258352 L72.5271062,73.6021968 C71.7610117,72.1019025 70.9689264,70.2722027 70.2199397,67.8308614 C68.3620668,62.8464706 67.7551576,56.8571335 68.3992122,49.8628501 C59.5725648,43.3538637 55.4067311,35.6146918 55.9017111,26.6453345 C63.354674,24.3522653 71.1663474,26.3677625 79.3367313,32.6918261 C85.3420499,27.3654536 92.1593063,25.0093222 99.7885006,25.623432 L100.334824,25.6723484 C100.437211,25.6809849 100.540434,25.6888631 100.644151,25.6951546 L100.956439,25.7084409 C102.156588,25.7347746 103.376666,25.4417312 104.095437,23.5695884 L104.229953,23.1928084 L104.229953,23.1928084 L104.344052,22.9059181 L104.344052,22.9059181 L104.492571,22.5694066 C104.520105,22.5094188 104.549008,22.447538 104.579246,22.3838513 L104.776441,21.9807589 L104.776441,21.9807589 L105.004116,21.5385131 C105.044514,21.4617753 105.086116,21.3835806 105.128891,21.3040161 L105.39933,20.8108911 L105.39933,20.8108911 L105.69631,20.2890805 L105.69631,20.2890805 L106.018253,19.7427714 L106.018253,19.7427714 L106.363583,19.176151 L106.363583,19.176151 L106.730724,18.5934064 L106.730724,18.5934064 L107.118101,17.9987247 C107.184262,17.8988489 107.251201,17.7986503 107.318884,17.6982159 L107.733657,17.0934795 C107.804188,16.9924513 107.875397,16.8913619 107.947253,16.7902986 L108.385877,16.1849284 C108.460185,16.084318 108.535074,15.9839081 108.610511,15.8837858 L109.069439,15.2872029 L109.069439,15.2872029 L109.539933,14.7017121 C111.839398,11.9053916 114.488919,9.64448022 116.687627,10.0464726 Z"></path>
        <path fill="#FFD280" id="Shape" d="M64.3074709,121.427243 C65.2741884,121.260714 66.1917683,121.91582 66.3569429,122.890462 C66.5221176,123.865104 65.8723387,124.790206 64.9056212,124.956734 C61.2108365,125.593205 57.9400133,125.374289 55.134523,124.282994 L55.3109555,120.434072 C57.7008702,121.712124 60.6764658,122.052727 64.3074709,121.427243 Z M65.4913131,114.882408 C66.4580306,114.71588 67.3756105,115.370985 67.5407851,116.345627 C67.7059598,117.320269 67.0561809,118.245371 66.0894634,118.4119 C62.006961,119.115159 58.4420668,118.774091 55.4505907,117.365771 L55.6329889,113.370853 C58.1571484,115.068014 61.4102554,115.585419 65.4913131,114.882408 Z M57.0522622,106.103777 C59.6923629,108.367888 63.2469777,109.132049 67.8589974,108.337574 C68.8257149,108.171045 69.7432948,108.826151 69.9084695,109.800793 C70.0736442,110.775435 69.4238653,111.700536 68.4571478,111.867065 C63.4140711,112.735795 59.1608348,112.01094 55.8026398,109.64929 L55.9017111,107.46748 C56.0467505,106.869935 56.2036853,106.294755 56.3716186,105.740921 C56.6154127,105.807949 56.8478298,105.928458 57.0522622,106.103777 Z M77.0206234,83.9534377 C79.0157632,94.2944057 76.1269854,99.4648897 68.3542899,99.4648897 C64.6879066,99.4648897 62.0647682,98.8896702 60.4848747,97.7392312 C62.8386776,94.845076 65.6143864,93.1091724 68.2108238,91.8496442 L68.8836934,91.5314295 C68.9950288,91.4800453 69.1059265,91.4294496 69.216337,91.3795862 L69.8725597,91.0887464 L69.8725597,91.0887464 L70.8297853,90.6795597 L70.8297853,90.6795597 L72.3331078,90.0473596 L72.3331078,90.0473596 L73.1668249,89.6831108 C73.25622,89.6428183 73.3444856,89.6025296 73.4315724,89.5621888 L73.9395514,89.3190688 C75.4186775,88.585139 76.4838331,87.7979765 76.8468563,86.6307381 C76.8773631,85.6711082 76.8617958,84.816865 76.8059012,84.0445051 L77.0206234,83.9534377 Z"></path>
        <path fill="#FFF3D4" id="Path-120" d="M55.3097547,126.290286 C56.7227544,132.037085 61.3163611,135.047787 69.0905747,135.322392 C59.5099092,134.883193 54.5274603,136.430791 54.1432279,139.965186 C53.7589956,143.499581 54.1478378,138.941281 55.3097547,126.290286 Z"></path>
        <path fill-rule="nonzero" fill="#FFCF6D" id="Path-12" d="M83.5531204,109.928399 C83.6546611,109.615113 83.9888801,109.444134 84.2996195,109.546507 C92.7011752,112.314399 97.5249921,117.878628 99.4129721,125.375727 C100.619913,130.168442 100.528504,135.267103 99.6521884,140.092397 C99.5381356,140.720411 99.4174645,141.30011 99.2953273,141.825522 L99.1589216,142.38818 L99.0477495,142.810831 L98.995301,142.994378 C98.9008604,143.309914 98.5705885,143.488519 98.2576181,143.393305 C97.9446478,143.29809 97.7674943,142.965111 97.8619349,142.649575 L97.973893,142.241271 L98.0545361,141.921848 C98.2019737,141.322832 98.3496895,140.637394 98.4877048,139.877435 C99.3359588,135.206661 99.4244375,130.271399 98.2655351,125.669441 C96.47395,118.555123 91.9327571,113.316897 83.9319081,110.681018 C83.6211687,110.578645 83.4515797,110.241686 83.5531204,109.928399 Z"></path>
        <path fill-rule="nonzero" fill="#FFCF6D" id="Path-13" d="M111.878383,108.360145 C112.201093,108.412802 112.420361,108.719242 112.368131,109.044597 L112.228421,109.923707 L111.961768,111.655188 L111.712137,113.351012 C111.671951,113.630677 111.632473,113.908856 111.593704,114.185549 L111.3696,115.82787 L111.16251,117.434511 L110.972429,119.005466 L110.799355,120.540724 L110.643283,122.040278 L110.504211,123.504118 L110.382134,124.932238 L110.27705,126.324628 C110.260951,126.553715 110.245561,126.781312 110.230878,127.007421 L110.151276,128.3462 L110.088657,129.649228 L110.043018,130.916497 C109.999676,132.374114 109.990994,133.758705 110.016948,135.070209 L110.047675,136.176455 C110.126092,138.353144 110.306273,140.314998 110.588092,142.06171 C110.640578,142.387023 110.421553,142.693639 110.098885,142.746556 C109.776217,142.799473 109.472094,142.578652 109.419607,142.253339 C109.155818,140.618374 108.978926,138.804613 108.888833,136.81182 L108.848299,135.707086 C108.81105,134.397512 108.808945,133.01542 108.841957,131.560751 L108.878854,130.296116 C108.886436,130.08238 108.894735,129.867164 108.903751,129.650465 L108.966441,128.332492 L109.046323,126.978949 L109.143394,125.589828 L109.257649,124.16512 L109.389086,122.704818 C109.412424,122.458467 109.436477,122.210633 109.461246,121.961316 L109.618448,120.447605 L109.792823,118.898279 C109.823316,118.637089 109.854525,118.374415 109.886449,118.110257 L110.086575,116.50749 C110.12136,116.237393 110.15686,115.965811 110.193075,115.692743 L110.418946,114.036518 L110.661976,112.344642 L110.92216,110.617108 L111.199496,108.853908 C111.245922,108.564703 111.491237,108.3579 111.771828,108.352498 L111.878383,108.360145 Z"></path>
        <path fill="#FE8989" id="Path-106" d="M70.2199397,47.7763763 C60.8500211,37.6337469 57.2003268,31.3535635 59.2708569,28.9358261 C62.536346,27.0456281 68.6485222,29.1451414 77.6073853,35.2343658 C75.3437156,37.5249405 73.0658521,39.9504536 70.2199397,47.7763763 Z"></path>
        <path fill="#FE8989" id="Path-107" d="M110.00385,26.2742122 C112.219023,19.0986807 114.284343,14.799099 116.19981,13.3754671 C118.115278,11.9518351 119.932428,17.8909447 121.65126,31.1927957 C117.761527,28.8115391 113.877309,26.9935119 110.00385,26.2742122 Z"></path>
        <path transform="translate(105.214966, 53.872592) rotate(4.000000) translate(-105.214966, -53.872592)" fill="#FFA8A8" id="Path-110" d="M104.233605,52.1784211 L106.63915,51.5797645 C107.531451,51.3577019 108.434821,51.9010372 108.656883,52.793338 C108.746535,53.1535811 108.71322,53.5334533 108.56223,53.8725915 L107.959428,55.2265441 C107.569669,56.1019815 106.544025,56.4957018 105.668588,56.105943 C105.612546,56.0809921 105.557866,56.0530866 105.504779,56.0223442 L103.82734,55.0509409 C103.079499,54.6178669 102.82433,53.6605463 103.257404,52.9127053 C103.469882,52.545794 103.822161,52.2808152 104.233605,52.1784211 Z"></path>
        <path transform="translate(104.677381, 59.129746) rotate(4.000000) translate(-104.677381, -59.129746)" fill-rule="nonzero" fill="#FFA8A8" id="Path-111" d="M106.436634,55.5492217 C106.763449,55.5413314 107.03473,55.8020429 107.042556,56.1315373 C107.111095,59.0171435 105.805125,61.2130858 103.182619,62.6388286 C102.894878,62.7952608 102.535836,62.686902 102.380676,62.3968025 C102.225515,62.1067029 102.332993,61.7447175 102.620734,61.5882853 C104.856657,60.3727111 105.916772,58.5901647 105.859053,56.1601106 C105.851227,55.8306163 106.109819,55.557112 106.436634,55.5492217 Z"></path>
        <path transform="translate(110.078923, 57.296212) rotate(4.000000) translate(-110.078923, -57.296212)" fill-rule="nonzero" fill="#FFA8A8" id="Path-112" d="M106.115493,56.1688811 C106.308512,55.9028756 106.678872,55.8449915 106.942715,56.0395933 C109.126882,57.6505643 111.212081,57.8974347 113.293398,56.816105 C113.583992,56.6651293 113.94096,56.7802437 114.090708,57.07322 C114.240457,57.3661963 114.126278,57.7260905 113.835684,57.8770661 C111.3388,59.1743 108.776453,58.8709393 106.243729,57.0028843 C105.979887,56.8082825 105.922473,56.4348866 106.115493,56.1688811 Z"></path>
        <ellipse ry="5.3631682" rx="2.96398685" cy="45.0572866" cx="116.717537" transform="translate(116.717537, 45.057287) rotate(-25.000000) translate(-116.717537, -45.057287)" fill="#003871" id="Oval"></ellipse>
        <ellipse ry="5.3631682" rx="2.96398685" cy="52.2185662" cx="90.6730088" transform="translate(90.673009, 52.218566) rotate(-25.000000) translate(-90.673009, -52.218566)" fill="#003871" id="Oval-Copy-8"></ellipse>
        <path fill-rule="nonzero" fill="#FFFAF3" id="Path-105" d="M88.5583483,64.544261 C88.8831919,64.5072712 89.1762721,64.7427816 89.2129611,65.0702881 C89.2455736,65.361405 89.0646279,65.6272191 88.7958671,65.708674 L88.691211,65.730267 L60.4536618,68.9456623 C60.1288181,68.9826521 59.8357379,68.7471418 59.7990489,68.4196352 C59.7664364,68.1285183 59.9473821,67.8627042 60.216143,67.7812494 L60.320799,67.7596563 L88.5583483,64.544261 Z"></path>
        <path fill-rule="nonzero" fill="#FFFAF3" id="Path-113" d="M144.492004,55.4332281 C144.817932,55.4077126 145.102665,55.6534109 145.127973,55.9820106 C145.153281,56.3106102 144.90958,56.5976773 144.583653,56.6231927 C137.599301,57.1699666 130.61494,57.8130402 123.630569,58.5524139 C123.305448,58.5868316 123.01421,58.349009 122.980072,58.0212222 C122.945934,57.6934354 123.181823,57.3998106 123.506945,57.3653928 C130.501955,56.6248929 137.496975,55.9808379 144.492004,55.4332281 Z"></path>
        <path fill-rule="nonzero" fill="#FFFAF3" id="Path-114" d="M124.502413,60.4957183 L124.609105,60.5010915 L126.322556,60.7468134 L127.98653,60.9925576 L129.601037,61.2383273 L131.166084,61.484126 L132.68168,61.7299568 L134.147834,61.975823 L135.564554,62.2217281 L136.931849,62.4676751 L138.249727,62.7136676 L139.518197,62.9597087 L140.737267,63.2058017 L141.906945,63.4519499 L143.027241,63.6981567 L144.098162,63.9444253 L145.119718,64.190759 L146.091916,64.4371612 C146.249837,64.4782341 146.405701,64.51931 146.559509,64.5603889 C146.875518,64.6447883 147.063831,64.9714833 146.980118,65.2900826 C146.896405,65.6086819 146.572366,65.7985384 146.256357,65.7141391 L145.318524,65.4702518 L144.331091,65.2262944 L143.294066,64.9822703 C143.117096,64.9415943 142.938061,64.9009156 142.756959,64.8602343 L141.645563,64.6161162 C141.456199,64.5754249 141.264769,64.5347311 141.071275,64.494035 L139.885525,64.2498303 L138.650218,64.0055721 L136.704354,63.6390915 L135.345189,63.3947137 L133.21358,63.0280693 L131.730611,62.7835925 L129.413334,62.416815 L127.806614,62.1722599 L126.150408,61.9276792 L124.444725,61.6830762 C124.120983,61.6373118 123.895336,61.3356162 123.940728,61.0092201 C123.981077,60.7190903 124.221999,60.507103 124.502413,60.4957183 Z"></path>
        <path fill-rule="nonzero" fill="#FFFAF3" id="Path-115" d="M124.526915,63.0864985 C124.817501,63.0864985 125.059181,63.2976073 125.1093,63.576001 L125.118836,63.6832718 L125.118874,63.517942 C125.117419,63.4461349 125.110375,63.4241155 125.081902,63.3994591 L125.348908,63.5691962 L125.934139,63.9098606 L126.726905,64.3465099 L132.529011,67.4289479 L133.637743,68.0301521 L134.984709,68.7762058 L135.799134,69.2389619 L136.548203,69.6753825 C136.787141,69.8165958 137.015399,69.9536135 137.233188,70.0866291 L137.855363,70.473863 C138.131935,70.6495828 138.21485,71.0180757 138.040559,71.2969149 C137.866268,71.5757542 137.500771,71.659349 137.224199,71.4836292 L136.615657,71.104943 L135.943358,70.7014287 L135.206272,70.2720969 C135.077968,70.1983352 134.946922,70.1234566 134.813111,70.0474404 L133.533612,69.3320246 L132.716785,68.884924 L131.056746,67.9933471 L125.939352,65.2770321 L125.03873,64.7848551 L124.656646,64.5640559 L124.374707,64.3854519 L124.234878,64.2842949 L124.128302,64.1935972 C124.067334,64.1358813 124.025533,64.0829266 123.996895,64.0303096 L123.96306,63.9510844 C123.958816,63.9377381 123.955207,63.9242746 123.952139,63.9106249 L123.939478,63.825939 L123.934994,63.6832718 C123.934994,63.353683 124.200006,63.0864985 124.526915,63.0864985 Z"></path>
        <path fill-rule="nonzero" fill="#FFFAF3" id="Path-116" d="M89.8028749,67.5899513 C90.1093263,67.4751893 90.4500308,67.6326208 90.5638597,67.9415843 C90.6650409,68.2162186 90.5529043,68.5181388 90.3115053,68.6624427 L90.2150857,68.7088072 L70.4260451,76.1195381 C70.1195936,76.2343001 69.7788891,76.0768686 69.6650603,75.7679051 C69.5638791,75.4932708 69.6760156,75.1913506 69.9174146,75.0470468 L70.0138343,75.0006822 L89.8028749,67.5899513 Z"></path>
        <path fill-rule="nonzero" fill="#FFFAF3" id="Path-117" d="M68.1126237,60.4969684 L68.2194376,60.4985262 L85.9990051,62.3669279 C86.3241526,62.4010967 86.5602627,62.6945407 86.5263717,63.0223536 C86.4962464,63.3137428 86.2629273,63.5342048 85.983089,63.5556011 L85.8762751,63.5540432 L68.0967076,61.6856416 C67.7715601,61.6514728 67.53545,61.3580287 67.569341,61.0302158 C67.5994663,60.7388266 67.8327854,60.5183647 68.1126237,60.4969684 Z"></path>
        <path fill="#FFFFFF" id="Path-118" d="M128.559064,91.6774351 C128.711633,105.016846 127.887474,115.373521 128.097033,126.467869 C127.966932,137.100872 132.995522,139.720577 130.713318,142.821976 C130.037257,143.658407 128.761682,143.474533 128.146659,143.647224 C127.531636,143.819914 126.644982,143.81602 126.225818,143.827306 C124.797339,143.865766 124.075776,144.001344 122.849953,143.827306 C121.08185,143.576277 120.143264,142.928827 119.541435,141.265214 C119.040267,139.851113 117.728894,133.444842 117.391855,128.953443 C117.10342,125.109743 117.10342,117.959899 117.391855,107.503912 C124.691295,84.2432264 128.413697,78.967734 128.559064,91.6774351 Z"></path>
        <path fill="#FFFFFF" id="Path-119" d="M98.6841648,142.157525 C103.827819,141.930654 106.71918,142.400758 107.358246,143.567838 C108.316845,145.318458 108.115992,146.161818 103.695273,146.161818 C100.748127,146.161818 92.59935,145.600924 79.2489429,144.479136 C78.9047244,142.931395 78.9047244,142.157525 79.2489429,142.157525 C79.7652707,142.157525 83.7209368,140.983761 84.1157638,140.983761 C84.3789819,140.983761 89.2351155,141.375016 98.6841648,142.157525 Z"></path>
        <path id="Combined-Shape" d=""></path>
    </g>
</svg>